{"title":"Buzz Lightyear of Star Command: The Adventure Begins (2000) DVD","uid":15873149,"size":729787052,"categoryP":"video","categoryS":"movies","magnet":"?xt=urn:btih:48868883edfbe5d6297571927b8b3beccf68929a&amp;dn=Buzz+Lightyear+of+Star+Command%3A+The+Adventure+Begins+%282000%29+DVD+&amp;tr=udp%3A%2F%2Ftracker.leechers-paradise.org%3A6969&amp;tr=udp%3A%2F%2Fzer0day.ch%3A1337&amp;tr=udp%3A%2F%2Fopen.demonii.com%3A1337&amp;tr=udp%3A%2F%2Ftracker.coppersurfer.tk%3A6969&amp;tr=udp%3A%2F%2Fexodus.desync.com%3A6969","seeders":4,"leechers":5,"uploader":"jmanwf","files":1,"time":1474461709,"description":"Buzz Lightyear must battle Emperor Zurg with the help of three hopefuls who insist on being his partners.\r\n\r\n\r\nVideo\r\nID : 1\r\nFormat : AVC\r\nFormat/Info : Advanced Video Codec\r\nFormat profile :   \r\nFormat settings, CABAC : Yes\r\nFormat settings, ReFrames : 4 frames\r\nCodec ID : V_MPEG4/ISO/AVC\r\nDuration : 1 h 6 min\r\nBit rate : 1 068 kb/s\r\nWidth : 720 pixels\r\nHeight : 442 pixels\r\nDisplay aspect ratio : 16:9\r\nOriginal display aspect ratio : 16:9\r\nFrame rate mode : Constant\r\nFrame rate : 25.000 FPS\r\nColor space : YUV\r\nChroma subsampling : 4:2:0\r\nBit depth : 8 bits\r\nScan type : Progressive\r\nBits/(Pixel*Frame) : 0.134\r\nStream size : 511 MiB (73%)\r\nWriting library : x264 core 142 r2479 dd79a61\r\nLanguage : English\r\nDefault : Yes\r\nForced : No\r\nColor range : Limited\r\nColor primaries : BT.601 PAL\r\nTransfer characteristics : BT.709\r\nMatrix coefficients : BT.601\r\n\r\nAudio\r\nID : 2\r\nFormat : AC-3\r\nFormat/Info : Audio Coding 3\r\nMode extension : CM (complete main)\r\nFormat settings, Endianness : Big\r\nCodec ID : A_AC3\r\nDuration : 1 h 6 min\r\nBit rate mode : Constant\r\nBit rate : 384 kb/s\r\nChannel(s) : 6 channels\r\nChannel positions : Front: L C R, Side: L R, LFE\r\nSampling rate : 48.0 kHz\r\nFrame rate : 31.250 FPS (1536 spf)\r\nCompression mode : Lossy\r\nStream size : 184 MiB (26%)\r\nLanguage : English\r\nDefault : Yes\r\nForced : No\r\n\r\n\r\n\r\n \nhttp://s12.postimg.org/sndz7g599/image.jpg","torrent":{"xt":"urn:btih:48868883edfbe5d6297571927b8b3beccf68929a","amp;dn":"Buzz+Lightyear+of+Star+Command%3A+The+Adventure+Begins+%282000%29+DVD+","amp;tr":["udp%3A%2F%2Ftracker.leechers-paradise.org%3A6969","udp%3A%2F%2Fzer0day.ch%3A1337","udp%3A%2F%2Fopen.demonii.com%3A1337","udp%3A%2F%2Ftracker.coppersurfer.tk%3A6969","udp%3A%2F%2Fexodus.desync.com%3A6969"],"infoHash":"48868883edfbe5d6297571927b8b3beccf68929a","infoHashBuffer":{"type":"Buffer","data":[72,134,136,131,237,251,229,214,41,117,113,146,123,139,59,236,207,104,146,154]},"announce":[],"urlList":[]}}